<svg width="51" height="51" viewBox="0 0 51 51" fill="none" xmlns="http://www.w3.org/2000/svg">
<rect width="51" height="51" rx="12" fill="white"/>
<g clip-path="url(#clip0_3640_90)">
<path d="M40.6748 15.9242C40.3465 15.7625 40.2049 16.0706 40.013 16.2272C39.9473 16.2776 39.8918 16.3433 39.8362 16.4039C39.3563 16.9189 38.7955 17.2574 38.063 17.2168C36.9919 17.1564 36.0776 17.4948 35.2693 18.3179C35.0974 17.3029 34.5266 16.6967 33.6576 16.3079C33.203 16.1059 32.7434 15.9039 32.425 15.4645C32.2027 15.1515 32.1421 14.8029 32.031 14.4595C31.9602 14.2524 31.8895 14.0403 31.6519 14.0049C31.3944 13.9646 31.2934 14.1816 31.1923 14.3635C30.7882 15.106 30.6316 15.9241 30.6466 16.7523C30.682 18.6161 31.4651 20.1007 33.021 21.1564C33.1978 21.2775 33.2434 21.3986 33.1878 21.5755C33.0817 21.9392 32.9553 22.2927 32.8442 22.6562C32.7735 22.8886 32.6674 22.9391 32.4199 22.838C31.5661 22.4796 30.8285 21.9491 30.1768 21.3078C29.0705 20.232 28.0701 19.0453 26.8224 18.116C26.5335 17.9014 26.2369 17.6976 25.9332 17.5049C24.6601 16.2625 26.0999 15.2423 26.4333 15.1212C26.7819 14.9949 26.5546 14.5605 25.428 14.5656C24.3013 14.5708 23.2708 14.9495 21.9574 15.4545C21.7654 15.5303 21.5633 15.5858 21.3561 15.6312C20.1639 15.404 18.9262 15.3534 17.6328 15.4999C15.1978 15.7726 13.2528 16.9292 11.8232 18.9039C10.1056 21.2775 9.7014 23.9743 10.1966 26.7874C10.7169 29.7519 12.2223 32.2064 14.5362 34.1256C16.9358 36.1153 19.6993 37.0901 22.8517 36.9033C24.7662 36.7922 26.8982 36.5347 29.303 34.4892C29.909 34.7923 30.5456 34.9135 31.6016 35.0044C32.415 35.0802 33.1979 34.964 33.8043 34.8378C34.7539 34.6358 34.6882 33.7519 34.3448 33.5904C31.5611 32.2873 32.1724 32.8177 31.6167 32.3883C33.0312 30.7065 35.1632 28.959 35.9967 23.2976C36.0624 22.8482 36.0068 22.5653 35.9967 22.2016C35.9917 21.9796 36.0422 21.8938 36.2948 21.8683C36.9919 21.7875 37.669 21.5957 38.2904 21.2523C40.0939 20.2625 40.8213 18.6362 40.993 16.6868C41.0184 16.3887 40.988 16.0807 40.6748 15.9242ZM24.9582 33.4691C22.2605 31.3379 20.9521 30.6358 20.4115 30.6661C19.9063 30.6966 19.9974 31.2773 20.1084 31.6561C20.2247 32.0297 20.3762 32.2873 20.5883 32.6155C20.7349 32.8328 20.836 33.1559 20.4418 33.3984C19.573 33.9387 18.0623 33.2166 17.9916 33.1813C16.2336 32.1408 14.7635 30.767 13.7279 28.8884C12.7275 27.0803 12.1466 25.141 12.0506 23.0703C12.0252 22.5705 12.1717 22.3937 12.667 22.3028C13.3185 22.1816 13.9905 22.1563 14.6421 22.2521C17.3956 22.6562 19.7396 23.8937 21.7049 25.853C22.8264 26.9692 23.6751 28.3026 24.5492 29.6056C25.4787 30.9892 26.4789 32.3075 27.7521 33.3883C28.2016 33.767 28.5603 34.0549 28.9038 34.267C27.8682 34.3832 26.1404 34.4086 24.9582 33.4691ZM26.2516 25.1107C26.2515 25.0581 26.2618 25.006 26.2818 24.9574C26.3018 24.9088 26.3313 24.8647 26.3684 24.8276C26.4055 24.7905 26.4496 24.7611 26.498 24.7413C26.5465 24.7214 26.5984 24.7114 26.6508 24.7118C26.7014 24.7118 26.7468 24.7218 26.7872 24.7369C26.8429 24.7572 26.8933 24.7875 26.9338 24.8329C27.0045 24.9036 27.0449 25.0045 27.0449 25.1107C27.0451 25.1633 27.0349 25.2155 27.0149 25.2641C26.9948 25.3127 26.9654 25.3569 26.9283 25.394C26.8912 25.4311 26.8471 25.4604 26.7986 25.4803C26.7501 25.5001 26.6982 25.5101 26.6458 25.5096C26.4236 25.5096 26.2516 25.3329 26.2516 25.1107ZM30.2681 27.1814C30.0104 27.2876 29.7528 27.3783 29.5052 27.3884C29.1213 27.4086 28.702 27.252 28.4747 27.0601C28.1211 26.7621 27.8685 26.5956 27.7624 26.0754C27.7169 25.8532 27.7422 25.5096 27.7826 25.3127C27.8735 24.8885 27.7725 24.6159 27.4744 24.3684C27.2319 24.1663 26.9237 24.1108 26.5853 24.1108C26.459 24.1108 26.3428 24.0552 26.2569 24.0098C26.1154 23.9391 25.9993 23.7622 26.1103 23.5451C26.1458 23.4746 26.3175 23.3027 26.358 23.2725C26.8178 23.0097 27.3482 23.0957 27.8382 23.2926C28.2929 23.4794 28.6365 23.823 29.1315 24.3077C29.6367 24.8935 29.7276 25.0552 30.0155 25.4945C30.243 25.838 30.4502 26.1915 30.5915 26.5956C30.6775 26.8481 30.5662 27.0551 30.2682 27.1814H30.2681Z" fill="#4D6BFE"/>
</g>
<defs>
<clipPath id="clip0_3640_90">
<rect width="31" height="23" fill="white" transform="translate(10 14)"/>
</clipPath>
</defs>
</svg>
