<svg width="51" height="51" viewBox="0 0 51 51" fill="none" xmlns="http://www.w3.org/2000/svg">
<rect width="51" height="51" rx="12" fill="#0D1015"/>
<path d="M15 35.8333C15 32.9799 17.3505 30.6667 20.25 30.6667H25.5V35.8333C25.5 38.6868 23.1495 41 20.25 41C17.3505 41 15 38.6868 15 35.8333Z" fill="#0ACF83"/>
<path d="M25.5 25.5C25.5 22.6466 27.8505 20.3333 30.75 20.3333C33.6495 20.3333 36 22.6465 36 25.5C36 28.3535 33.6495 30.6667 30.75 30.6667C27.8505 30.6667 25.5 28.3534 25.5 25.5Z" fill="#1ABCFE"/>
<path d="M15 25.5C15 28.3535 17.3505 30.6667 20.25 30.6667H25.5V20.3333H20.25C17.3505 20.3333 15 22.6465 15 25.5Z" fill="#A259FF"/>
<path d="M25.5 10V20.3333H30.75C33.6495 20.3333 36 18.0201 36 15.1667C36 12.3132 33.6495 10 30.75 10H25.5Z" fill="#FF7262"/>
<path d="M15 15.1667C15 18.0201 17.3505 20.3333 20.25 20.3333H25.5V10H20.25C17.3505 10 15 12.3132 15 15.1667Z" fill="#F24E1E"/>
</svg>
