<svg width="51" height="51" viewBox="0 0 51 51" fill="none" xmlns="http://www.w3.org/2000/svg">
<rect width="51" height="51" rx="12" fill="#050505"/>
<path d="M36.7375 14.799L21.9815 29.7526L32.2735 22.0825C32.785 21.7113 33.498 21.8505 33.746 22.4381C35.017 25.5155 34.4435 29.2268 31.9325 31.7629C29.406 34.299 25.903 34.8711 22.6945 33.5876L19.1915 35.2268C24.2135 38.6907 30.3205 37.8402 34.1335 33.9897C37.156 30.9433 38.1015 26.7835 37.218 23.0258C35.947 17.5206 37.528 15.3247 40.7675 10.8247L41 10.5L36.7375 14.799ZM19.8425 31.6237C16.231 28.1443 16.8665 22.7783 19.9355 19.6701C22.214 17.3814 25.934 16.4381 29.189 17.8144L32.6765 16.1907C32.041 15.7268 31.235 15.232 30.3205 14.8918C28.2031 14.0228 25.8746 13.8014 23.6308 14.2557C21.3871 14.7101 19.3293 15.8196 17.719 17.4433C14.4485 20.7526 13.41 25.8247 15.1925 30.1546C16.51 33.3866 14.3555 35.6753 12.17 37.9948C11.395 38.8144 10.62 39.634 10 40.5L19.8425 31.6237Z" fill="#FAFAFA"/>
</svg>
