<svg width="51" height="51" viewBox="0 0 51 51" fill="none" xmlns="http://www.w3.org/2000/svg">
<rect width="51" height="51" rx="12" fill="#1966D9"/>
<path d="M24.7715 10C24.7715 13.72 27.825 16.7425 31.514 16.7425H34.273V19.3775C34.273 23.0975 37.28 26.1045 41 26.12V11.302C41 10.9567 40.8628 10.6255 40.6187 10.3813C40.3745 10.1372 40.0433 10 39.698 10H24.7715ZM17.3935 17.44C17.4017 19.2216 18.113 20.9279 19.3728 22.1877C20.6326 23.4475 22.3389 24.1588 24.1205 24.167H26.9105V26.833C26.9187 28.6146 27.63 30.3209 28.8898 31.5807C30.1496 32.8405 31.8559 33.5518 33.6375 33.56V18.7265C33.6335 18.3865 33.4966 18.0617 33.2562 17.8213C33.0158 17.5809 32.691 17.444 32.351 17.44H17.3935ZM10 24.88C10 28.6 13.0225 31.607 16.7425 31.607H19.5015V34.273C19.517 37.9775 22.524 41 26.2285 41V26.1665C26.2285 25.8212 26.0913 25.49 25.8472 25.2458C25.603 25.0017 25.2718 24.8645 24.9265 24.8645L10 24.88Z" fill="#FFF5FF"/>
</svg>
