<svg width="51" height="51" viewBox="0 0 51 51" fill="none" xmlns="http://www.w3.org/2000/svg">
<g clip-path="url(#clip0_3650_145)">
<path d="M0 12.75C0 5.70841 5.70841 0 12.75 0H38.25C45.2916 0 51 5.70841 51 12.75V38.25C51 45.2916 45.2916 51 38.25 51H12.75C5.70841 51 0 45.2916 0 38.25V12.75Z" fill="#FFDD33"/>
<path d="M33.906 9.72192H29.2764L33.1345 16.5005L24.6467 9.72192H20.0171L24.2611 18.007L15.3875 9.72192H10.7578L15.3875 20.268L10.7578 41.3579H15.3875L24.2611 18.7613L20.0171 41.3579H24.6467L33.1345 17.2548L29.2764 41.3579H33.906L42.3938 14.9938L33.906 9.72192Z" fill="black"/>
</g>
<defs>
<clipPath id="clip0_3650_145">
<rect width="51" height="51" fill="white"/>
</clipPath>
</defs>
</svg>
