<svg width="51" height="51" viewBox="0 0 51 51" fill="none" xmlns="http://www.w3.org/2000/svg">
<rect width="51" height="51" rx="12" fill="white"/>
<g clip-path="url(#clip0_3650_152)">
<path d="M37.9727 10H13.0273C11.3554 10 10 11.3554 10 13.0273V37.9727C10 39.6446 11.3554 41 13.0273 41H37.9727C39.6446 41 41 39.6446 41 37.9727V13.0273C41 11.3554 39.6446 10 37.9727 10Z" fill="url(#paint0_linear_3650_152)"/>
<path d="M35.5175 14.03H28.9687C28.1662 14.03 27.5156 14.6806 27.5156 15.4832V26.1394C27.5156 26.9419 28.1662 27.5925 28.9687 27.5925H35.5175C36.32 27.5925 36.9706 26.9419 36.9706 26.1394V15.4832C36.9706 14.6806 36.32 14.03 35.5175 14.03Z" fill="white"/>
<path d="M22.0312 14.03H15.4824C14.6799 14.03 14.0293 14.6806 14.0293 15.4832V33.8894C14.0293 34.6919 14.6799 35.3425 15.4824 35.3425H22.0312C22.8337 35.3425 23.4843 34.6919 23.4843 33.8894V15.4832C23.4843 14.6806 22.8337 14.03 22.0312 14.03Z" fill="white"/>
</g>
<defs>
<linearGradient id="paint0_linear_3650_152" x1="25.5" y1="10" x2="25.5" y2="41" gradientUnits="userSpaceOnUse">
<stop stop-color="#0091E6"/>
<stop offset="1" stop-color="#0079BF"/>
</linearGradient>
<clipPath id="clip0_3650_152">
<rect width="31" height="31" fill="white" transform="translate(10 10)"/>
</clipPath>
</defs>
</svg>
