<svg width="51" height="51" viewBox="0 0 51 51" fill="none" xmlns="http://www.w3.org/2000/svg">
<rect width="51" height="51" rx="12" fill="#0D1015"/>
<g clip-path="url(#clip0_3640_76)">
<mask id="mask0_3640_76" style="mask-type:alpha" maskUnits="userSpaceOnUse" x="10" y="10" width="31" height="31">
<path fill-rule="evenodd" clip-rule="evenodd" d="M31.9827 40.7883C32.2294 40.8844 32.4932 40.9288 32.7578 40.9186C33.0224 40.9085 33.282 40.844 33.5206 40.7292L39.903 37.658C40.2317 37.4998 40.509 37.252 40.7031 36.9431C40.8972 36.6342 41.0001 36.2769 41.0001 35.9121V15.0881C41.0002 14.7232 40.8972 14.3658 40.7032 14.0569C40.5091 13.748 40.2317 13.5001 39.903 13.3419L33.5206 10.2712C33.16 10.0977 32.7543 10.0405 32.3598 10.1077C31.9652 10.1749 31.6013 10.363 31.3184 10.6461L19.1 21.793L13.7782 17.7531C13.5381 17.5709 13.2418 17.4785 12.9407 17.4918C12.6396 17.5052 12.3527 17.6235 12.1296 17.8262L10.4227 19.3789C10.2897 19.4999 10.1834 19.6473 10.1106 19.8117C10.0378 19.9761 10.0001 20.1539 10 20.3338C9.99986 20.5136 10.0373 20.6914 10.1098 20.856C10.1823 21.0205 10.2884 21.1681 10.4213 21.2893L15.0366 25.4999L10.4215 29.7109C10.2887 29.8321 10.1827 29.9796 10.1102 30.1441C10.0377 30.3087 10.0004 30.4865 10.0005 30.6662C10.0006 30.846 10.0383 31.0238 10.111 31.1882C10.1838 31.3526 10.29 31.5 10.4229 31.621L12.1299 33.1737C12.3529 33.3764 12.6398 33.4948 12.9409 33.5082C13.242 33.5216 13.5383 33.4292 13.7785 33.247L19.1003 29.2073L31.3186 40.354C31.5077 40.5431 31.7337 40.6909 31.9827 40.7883ZM33.2547 18.4627L23.984 25.4999L33.2549 32.5374L33.2547 18.4627Z" fill="white"/>
</mask>
<g mask="url(#mask0_3640_76)">
<path d="M39.9024 13.347L33.515 10.2713C33.1542 10.0975 32.7484 10.0403 32.3536 10.1074C31.9589 10.1746 31.5948 10.3629 31.3118 10.6462L10.4018 29.7109C10.269 29.8321 10.1629 29.9796 10.0903 30.1441C10.0177 30.3087 9.98033 30.4865 9.98047 30.6663C9.98061 30.8461 10.0183 31.0239 10.0911 31.1883C10.1639 31.3527 10.2702 31.5001 10.4033 31.6211L12.1112 33.1737C12.3342 33.3767 12.6214 33.4952 12.9227 33.5086C13.224 33.5221 13.5205 33.4295 13.7607 33.2471L38.9412 14.1446C39.7859 13.5037 40.9993 14.1063 40.9993 15.1666V15.0925C40.9993 14.7278 40.8964 14.3705 40.7023 14.0616C40.5083 13.7528 40.231 13.5053 39.9024 13.347Z" fill="#0065A9"/>
<g filter="url(#filter0_d_3640_76)">
<path d="M39.9024 37.6531L33.515 40.7284C33.1543 40.9022 32.7484 40.9595 32.3537 40.8925C31.959 40.8254 31.5948 40.6372 31.3118 40.354L10.4018 21.289C10.269 21.1678 10.1629 21.0203 10.0903 20.8558C10.0177 20.6913 9.98033 20.5134 9.98047 20.3336C9.98061 20.1538 10.0183 19.976 10.0911 19.8116C10.1639 19.6472 10.2702 19.4998 10.4033 19.3789L12.1112 17.8262C12.3342 17.6232 12.6214 17.5047 12.9227 17.4913C13.224 17.4779 13.5205 17.5704 13.7607 17.7528L38.9412 36.8551C39.7859 37.4962 40.9993 36.8936 40.9993 35.8333V35.9074C40.9993 36.2721 40.8964 36.6295 40.7023 36.9383C40.5083 37.2471 40.231 37.4949 39.9024 37.6531Z" fill="#007ACC"/>
</g>
<g filter="url(#filter1_d_3640_76)">
<path d="M33.5159 40.7292C33.155 40.9026 32.7492 40.9597 32.3545 40.8925C31.9598 40.8253 31.5957 40.6372 31.3125 40.3541C32.0274 41.069 33.25 40.5626 33.25 39.5515V11.4483C33.25 10.4371 32.0274 9.93073 31.3125 10.6459C31.5957 10.3628 31.9598 10.1747 32.3545 10.1075C32.7492 10.0403 33.155 10.0973 33.5159 10.2708L39.9022 13.3422C40.231 13.5003 40.5085 13.7481 40.7028 14.057C40.897 14.366 41 14.7234 41 15.0884V35.9121C41 36.277 40.897 36.6345 40.7028 36.9434C40.5085 37.2524 40.231 37.5002 39.9022 37.6583L33.5159 40.7292Z" fill="#1F9CF0"/>
</g>
<path opacity="0.25" fill-rule="evenodd" clip-rule="evenodd" d="M31.9633 40.7883C32.21 40.8844 32.4738 40.9287 32.7383 40.9186C33.0028 40.9084 33.2624 40.8439 33.501 40.7292L39.8833 37.658C40.212 37.4998 40.4894 37.2519 40.6835 36.943C40.8776 36.6341 40.9805 36.2767 40.9804 35.9118V15.0881C40.9805 14.7232 40.8776 14.3658 40.6835 14.0569C40.4894 13.748 40.212 13.5001 39.8833 13.3419L33.501 10.2712C33.1403 10.0977 32.7347 10.0405 32.3401 10.1077C31.9456 10.1749 31.5817 10.363 31.2988 10.6461L19.0804 21.793L13.7586 17.7533C13.5185 17.5711 13.2222 17.4787 12.9211 17.4921C12.62 17.5054 12.333 17.6237 12.11 17.8265L10.4031 19.3791C10.2701 19.5001 10.1638 19.6476 10.091 19.812C10.0183 19.9764 9.98061 20.1542 9.98047 20.334C9.98033 20.5138 10.0177 20.6917 10.0902 20.8562C10.1627 21.0207 10.2688 21.1683 10.4016 21.2895L15.017 25.4999L10.4018 29.7106C10.269 29.8318 10.1629 29.9794 10.0904 30.1439C10.0179 30.3085 9.98046 30.4863 9.98059 30.6661C9.98073 30.8459 10.0184 31.0237 10.0912 31.1882C10.164 31.3526 10.2703 31.5 10.4033 31.621L12.1102 33.1737C12.3332 33.3764 12.6202 33.4948 12.9213 33.5082C13.2224 33.5216 13.5187 33.4292 13.7588 33.247L19.0809 29.2071L31.2992 40.354C31.4883 40.543 31.7144 40.6909 31.9633 40.7883ZM33.2353 18.4625L23.9643 25.4999L33.2353 32.5372V18.4625Z" fill="url(#paint0_linear_3640_76)"/>
</g>
</g>
<defs>
<filter id="filter0_d_3640_76" x="8.93872" y="16.4482" width="33.103" height="25.5132" filterUnits="userSpaceOnUse" color-interpolation-filters="sRGB">
<feFlood flood-opacity="0" result="BackgroundImageFix"/>
<feColorMatrix in="SourceAlpha" type="matrix" values="0 0 0 0 0 0 0 0 0 0 0 0 0 0 0 0 0 0 127 0" result="hardAlpha"/>
<feOffset/>
<feGaussianBlur stdDeviation="0.520875"/>
<feColorMatrix type="matrix" values="0 0 0 0 0 0 0 0 0 0 0 0 0 0 0 0 0 0 0.25 0"/>
<feBlend mode="overlay" in2="BackgroundImageFix" result="effect1_dropShadow_3640_76"/>
<feBlend mode="normal" in="SourceGraphic" in2="effect1_dropShadow_3640_76" result="shape"/>
</filter>
<filter id="filter1_d_3640_76" x="30.2708" y="9.03833" width="11.771" height="32.9233" filterUnits="userSpaceOnUse" color-interpolation-filters="sRGB">
<feFlood flood-opacity="0" result="BackgroundImageFix"/>
<feColorMatrix in="SourceAlpha" type="matrix" values="0 0 0 0 0 0 0 0 0 0 0 0 0 0 0 0 0 0 127 0" result="hardAlpha"/>
<feOffset/>
<feGaussianBlur stdDeviation="0.520875"/>
<feColorMatrix type="matrix" values="0 0 0 0 0 0 0 0 0 0 0 0 0 0 0 0 0 0 0.25 0"/>
<feBlend mode="overlay" in2="BackgroundImageFix" result="effect1_dropShadow_3640_76"/>
<feBlend mode="normal" in="SourceGraphic" in2="effect1_dropShadow_3640_76" result="shape"/>
</filter>
<linearGradient id="paint0_linear_3640_76" x1="25.4804" y1="10.0799" x2="25.4804" y2="40.92" gradientUnits="userSpaceOnUse">
<stop stop-color="white"/>
<stop offset="1" stop-color="white" stop-opacity="0"/>
</linearGradient>
<clipPath id="clip0_3640_76">
<rect width="31" height="31" fill="white" transform="translate(10 10)"/>
</clipPath>
</defs>
</svg>
