<svg width="52" height="52" viewBox="0 0 52 52" fill="none" xmlns="http://www.w3.org/2000/svg">
<rect width="51.2687" height="51.2687" rx="12" fill="#18191E"/>
<path fill-rule="evenodd" clip-rule="evenodd" d="M12.9314 11.9543C12.3918 11.9543 11.9543 12.3918 11.9543 12.9314V34.4286H10V12.9314C10 11.3125 11.3125 10 12.9314 10H39.112C40.4178 10 41.0718 11.5788 40.1484 12.5021L24.0237 28.6268H28.5658V26.6115H30.5201V29.1154C30.5201 29.9249 29.8638 30.5811 29.0543 30.5811H22.0694L18.7105 33.9401H33.9401V21.7257H35.8944V33.9401C35.8944 35.0194 35.0194 35.8944 33.9401 35.8944H16.7562L13.3362 39.3144H38.3372C38.8769 39.3144 39.3144 38.8769 39.3144 38.3372V16.84H41.2687V38.3372C41.2687 39.9562 39.9562 41.2687 38.3372 41.2687H12.1567C10.8508 41.2687 10.1969 39.6899 11.1202 38.7665L27.1839 22.7029H22.7029V24.6572H20.7486V22.2143C20.7486 21.4048 21.4048 20.7486 22.2143 20.7486H29.1382L32.5582 17.3286H17.3286V29.5429H15.3743V17.3286C15.3743 16.2493 16.2493 15.3743 17.3286 15.3743H34.5125L37.9325 11.9543H12.9314Z" fill="white"/>
</svg>
